<mxfile host="app.diagrams.net" modified="2021-01-20T03:15:36.583Z" agent="5.0 (Macintosh; Intel Mac OS X 10_15_4) AppleWebKit/537.36 (KHTML, like Gecko) Chrome/87.0.4280.141 Safari/537.36" etag="wbkKFX99h4MtPT1chAPh" version="14.2.3" type="github">
  <diagram id="ANDMtuSRa9tyDsQReYJo" name="第 1 页">
    <mxGraphModel dx="1426" dy="664" grid="1" gridSize="10" guides="1" tooltips="1" connect="1" arrows="1" fold="1" page="1" pageScale="1" pageWidth="827" pageHeight="1169" math="0" shadow="0">
      <root>
        <mxCell id="0" />
        <mxCell id="1" parent="0" />
        <mxCell id="5x3sF--MCuPwuHfUQVIT-1" value="Actor" style="shape=umlActor;verticalLabelPosition=bottom;verticalAlign=top;html=1;outlineConnect=0;" vertex="1" parent="1">
          <mxGeometry x="20" y="349" width="30" height="60" as="geometry" />
        </mxCell>
        <mxCell id="5x3sF--MCuPwuHfUQVIT-2" value="" style="shape=flexArrow;endArrow=classic;html=1;" edge="1" parent="1">
          <mxGeometry width="50" height="50" relative="1" as="geometry">
            <mxPoint x="80" y="380" as="sourcePoint" />
            <mxPoint x="240" y="380" as="targetPoint" />
          </mxGeometry>
        </mxCell>
        <mxCell id="5x3sF--MCuPwuHfUQVIT-3" value="grpc 双向加密通信" style="text;html=1;align=center;verticalAlign=middle;resizable=0;points=[];autosize=1;" vertex="1" parent="1">
          <mxGeometry x="105" y="350" width="110" height="20" as="geometry" />
        </mxCell>
        <mxCell id="5x3sF--MCuPwuHfUQVIT-4" value="asset data" style="text;html=1;align=center;verticalAlign=middle;resizable=0;points=[];autosize=1;" vertex="1" parent="1">
          <mxGeometry x="125" y="390" width="70" height="20" as="geometry" />
        </mxCell>
        <mxCell id="5x3sF--MCuPwuHfUQVIT-19" style="edgeStyle=orthogonalEdgeStyle;rounded=0;orthogonalLoop=1;jettySize=auto;html=1;entryX=0.5;entryY=0;entryDx=0;entryDy=0;" edge="1" parent="1" source="5x3sF--MCuPwuHfUQVIT-5" target="5x3sF--MCuPwuHfUQVIT-9">
          <mxGeometry relative="1" as="geometry" />
        </mxCell>
        <mxCell id="5x3sF--MCuPwuHfUQVIT-5" value="server&lt;br&gt;接收client上传的数据保存到全局&lt;br&gt;chan AssetInfos中" style="rounded=0;whiteSpace=wrap;html=1;" vertex="1" parent="1">
          <mxGeometry x="250" y="310" width="120" height="150" as="geometry" />
        </mxCell>
        <mxCell id="5x3sF--MCuPwuHfUQVIT-7" value="process1" style="text;html=1;align=center;verticalAlign=middle;resizable=0;points=[];autosize=1;" vertex="1" parent="1">
          <mxGeometry x="240" y="490" width="60" height="20" as="geometry" />
        </mxCell>
        <mxCell id="5x3sF--MCuPwuHfUQVIT-8" value="消费全局chan&lt;br&gt;&amp;nbsp; AssetInfos" style="text;html=1;align=center;verticalAlign=middle;resizable=0;points=[];autosize=1;" vertex="1" parent="1">
          <mxGeometry x="320" y="490" width="90" height="30" as="geometry" />
        </mxCell>
        <mxCell id="5x3sF--MCuPwuHfUQVIT-9" value="1、数据分类&lt;br&gt;2、根据配置策略将终端信息分组（ip）" style="rounded=0;whiteSpace=wrap;html=1;" vertex="1" parent="1">
          <mxGeometry x="250" y="570" width="120" height="60" as="geometry" />
        </mxCell>
        <mxCell id="5x3sF--MCuPwuHfUQVIT-21" style="edgeStyle=orthogonalEdgeStyle;rounded=0;orthogonalLoop=1;jettySize=auto;html=1;exitX=1;exitY=0.5;exitDx=0;exitDy=0;entryX=0.25;entryY=0;entryDx=0;entryDy=0;" edge="1" parent="1" source="5x3sF--MCuPwuHfUQVIT-11" target="5x3sF--MCuPwuHfUQVIT-17">
          <mxGeometry relative="1" as="geometry" />
        </mxCell>
        <mxCell id="5x3sF--MCuPwuHfUQVIT-11" value="mysql" style="shape=datastore;whiteSpace=wrap;html=1;" vertex="1" parent="1">
          <mxGeometry x="440" y="350" width="90" height="90" as="geometry" />
        </mxCell>
        <mxCell id="5x3sF--MCuPwuHfUQVIT-12" value="" style="endArrow=classic;html=1;exitX=1;exitY=0.5;exitDx=0;exitDy=0;entryX=0.5;entryY=1;entryDx=0;entryDy=0;" edge="1" parent="1" source="5x3sF--MCuPwuHfUQVIT-9" target="5x3sF--MCuPwuHfUQVIT-11">
          <mxGeometry width="50" height="50" relative="1" as="geometry">
            <mxPoint x="407" y="535" as="sourcePoint" />
            <mxPoint x="457" y="485" as="targetPoint" />
            <Array as="points">
              <mxPoint x="485" y="600" />
            </Array>
          </mxGeometry>
        </mxCell>
        <mxCell id="5x3sF--MCuPwuHfUQVIT-13" value="处理后的数据" style="text;html=1;align=center;verticalAlign=middle;resizable=0;points=[];autosize=1;" vertex="1" parent="1">
          <mxGeometry x="440" y="540" width="90" height="20" as="geometry" />
        </mxCell>
        <mxCell id="5x3sF--MCuPwuHfUQVIT-15" value="process2" style="text;html=1;align=center;verticalAlign=middle;resizable=0;points=[];autosize=1;" vertex="1" parent="1">
          <mxGeometry x="640" y="370" width="60" height="20" as="geometry" />
        </mxCell>
        <mxCell id="5x3sF--MCuPwuHfUQVIT-23" style="edgeStyle=orthogonalEdgeStyle;rounded=0;orthogonalLoop=1;jettySize=auto;html=1;exitX=0.75;exitY=0;exitDx=0;exitDy=0;entryX=0.5;entryY=1;entryDx=0;entryDy=0;" edge="1" parent="1" source="5x3sF--MCuPwuHfUQVIT-17" target="5x3sF--MCuPwuHfUQVIT-22">
          <mxGeometry relative="1" as="geometry" />
        </mxCell>
        <mxCell id="5x3sF--MCuPwuHfUQVIT-17" value="定时查询mysql找出更新的数据，保存到CalAsset中" style="rounded=0;whiteSpace=wrap;html=1;" vertex="1" parent="1">
          <mxGeometry x="742.5" y="490" width="143" height="80" as="geometry" />
        </mxCell>
        <mxCell id="5x3sF--MCuPwuHfUQVIT-25" style="edgeStyle=orthogonalEdgeStyle;rounded=0;orthogonalLoop=1;jettySize=auto;html=1;exitX=0;exitY=0.5;exitDx=0;exitDy=0;entryX=0.5;entryY=0;entryDx=0;entryDy=0;" edge="1" parent="1" source="5x3sF--MCuPwuHfUQVIT-22" target="5x3sF--MCuPwuHfUQVIT-11">
          <mxGeometry relative="1" as="geometry" />
        </mxCell>
        <mxCell id="5x3sF--MCuPwuHfUQVIT-22" value="消费chan CalAsset&lt;br&gt;计算终端分数" style="rounded=0;whiteSpace=wrap;html=1;" vertex="1" parent="1">
          <mxGeometry x="840" y="250" width="120" height="60" as="geometry" />
        </mxCell>
        <mxCell id="5x3sF--MCuPwuHfUQVIT-24" value="process3" style="text;html=1;align=center;verticalAlign=middle;resizable=0;points=[];autosize=1;" vertex="1" parent="1">
          <mxGeometry x="827" y="370" width="60" height="20" as="geometry" />
        </mxCell>
        <mxCell id="5x3sF--MCuPwuHfUQVIT-26" value="计算的终端分数更新到mysql" style="text;html=1;align=center;verticalAlign=middle;resizable=0;points=[];autosize=1;" vertex="1" parent="1">
          <mxGeometry x="540" y="250" width="170" height="20" as="geometry" />
        </mxCell>
        <mxCell id="5x3sF--MCuPwuHfUQVIT-29" value="&lt;h1&gt;App check item&lt;/h1&gt;&lt;div&gt;服务分数&lt;/div&gt;&lt;div&gt;进程分数&lt;/div&gt;&lt;div&gt;软件分数&lt;/div&gt;&lt;div&gt;补丁分数&lt;/div&gt;&lt;div&gt;&lt;br&gt;&lt;/div&gt;" style="text;html=1;strokeColor=none;fillColor=none;spacing=5;spacingTop=-20;whiteSpace=wrap;overflow=hidden;rounded=0;" vertex="1" parent="1">
          <mxGeometry x="160" y="680" width="210" height="120" as="geometry" />
        </mxCell>
        <mxCell id="5x3sF--MCuPwuHfUQVIT-31" value="&lt;h1&gt;system check item&lt;/h1&gt;&lt;div&gt;登录失败限制&lt;/div&gt;&lt;div&gt;系统防火墙&lt;/div&gt;&lt;div&gt;终端入域检查&lt;/div&gt;&lt;div&gt;本地身份防盗用&lt;/div&gt;&lt;div&gt;密码维护&lt;/div&gt;&lt;div&gt;账户访问&lt;/div&gt;&lt;div&gt;账户权限&lt;/div&gt;" style="text;html=1;strokeColor=none;fillColor=none;spacing=5;spacingTop=-20;whiteSpace=wrap;overflow=hidden;rounded=0;" vertex="1" parent="1">
          <mxGeometry x="420" y="680" width="240" height="170" as="geometry" />
        </mxCell>
      </root>
    </mxGraphModel>
  </diagram>
</mxfile>
